<svg xmlns="http://www.w3.org/2000/svg" xmlns:xlink="http://www.w3.org/1999/xlink" width="128" height="128" viewBox="0 0 128 128">
  <defs>
    <clipPath id="clip-path">
      <rect id="crop" width="128" height="128" fill="none"/>
    </clipPath>
    <clipPath id="clip-path-2">
      <path id="Path_119" data-name="Path 119" d="M121.152,36.256,91.744,6.848C86.352,1.456,75.914-1.341,68.55.634L28.378,11.4C21.011,13.37,13.37,21.011,11.4,28.378L.634,68.55c-1.974,7.363.822,17.8,6.214,23.194l29.408,29.408c5.392,5.392,15.83,8.189,23.194,6.214L99.622,116.6c7.366-1.971,15.008-9.613,16.979-16.979L127.366,59.45c1.974-7.363-.822-17.8-6.214-23.194" transform="translate(0 0)" fill="none" clip-rule="evenodd"/>
    </clipPath>
    <clipPath id="clip-path-3">
      <rect id="Rectangle_232" data-name="Rectangle 232" width="4608" height="4179.2" fill="none"/>
    </clipPath>
    <clipPath id="clip-path-4">
      <path id="Path_120" data-name="Path 120" d="M65.678,68.794h13.2c-.192-4.051-2.224-6.688-6.413-6.688C68.533,62.106,65.931,64.551,65.678,68.794Zm6.854-14.016c9.459,0,15.68,6.173,15.68,16.525v.739a2.97,2.97,0,0,1-2.95,2.989H65.678c.189,4.115,2.666,6.749,6.854,6.749,2.438,0,4.227-.768,5.261-2.134l.01-.013a4.228,4.228,0,0,1,4.054-1.8,4.354,4.354,0,0,1,2.432,7.437c-.141.131-.3.246-.451.371l-.019.038c-.1.08-.211.154-.314.234s-.179.141-.275.2A17.754,17.754,0,0,1,72.786,89.37c-8.422,0-14.63-4.685-16.41-12.5v7.162a4.524,4.524,0,1,1-9.046,0V70.538c0-4.144-1.859-6.464-5.328-6.464-3.222,0-5.2,2.134-5.574,5.4v14.56a4.524,4.524,0,1,1-9.046,0V70.538c0-4.144-1.92-6.464-5.2-6.464-3.594,0-5.763,2.634-5.763,6.525v13.43a4.524,4.524,0,1,1-9.046,0V72.816l.019-.022c-.006-.32-.019-.637-.019-.982,0-16.778,12.893-16.272,16.976-16.272,4.4,0,7.93,1.821,10.035,5.146a11,11,0,0,1,9.853-5.146c6.928,0,11.626,4.458,12.1,11.923C58.04,59.5,64.251,54.778,72.533,54.778ZM13.2,17.076a5.024,5.024,0,0,1-5.024-5.088A5.051,5.051,0,1,1,13.2,17.076Zm4.419,5.952-.176,16.189c0,3.642,2.323,5,4.909,5.011,2.435-.016,4.611-1.245,4.858-4.432l.163-25.638a2.781,2.781,0,0,1,2.762-2.781H33.88a2.783,2.783,0,0,1,2.765,2.816l-.032,4.365a4.886,4.886,0,0,1,2.573-.755,5.115,5.115,0,0,1,0,10.23,4.931,4.931,0,0,1-2.627-.758l-.086,11.942c0,3.568,2.227,4.944,4.746,5.011a7.187,7.187,0,0,0,5.235-2.01l.01.006a4.182,4.182,0,0,1,3.133-1.28H49.6a4.259,4.259,0,0,1,3.792,2.266c.611,1.27,1.9,2.118,4.013,2.282,2.534.2,4.2-.771,4.342-2.694.154-1.987-1-2.72-5.661-4.243-6.829-2.336-11.334-4.17-10.819-10.966.48-6.346,5.664-10.07,13.891-9.43,4.685.362,8.01,2.083,10.032,4.63a4.343,4.343,0,0,1-3.523,6.973,4.247,4.247,0,0,1-3.741-2.4,3.8,3.8,0,0,0-3.44-2.035c-2.467-.192-3.811.736-3.946,2.531-.176,2.307,2.269,2.819,6.115,4.154,6.387,2.234,10.851,4.646,10.4,10.672-.512,6.733-5.709,10.646-14.253,9.984A17.844,17.844,0,0,1,49,50.439c-2.938,1.69-5.869,2.218-9.859,2.218-3.962,0-7.229-1.082-9.338-3.373a9.2,9.2,0,0,1-7.443,3.373c-8.25,0-14.24-3.475-14.176-11.19L8.357,23a1.838,1.838,0,0,1,1.824-1.834H15.8A1.837,1.837,0,0,1,17.624,23.028Z" transform="translate(-7.368 -6.842)" fill="none" clip-rule="evenodd"/>
    </clipPath>
  </defs>
  <g id="Vector_Smart_Object" data-name="Vector Smart Object" clip-path="url(#clip-path)">
    <g id="Group_469" data-name="Group 469" transform="translate(0 0)">
      <g id="Group_468" data-name="Group 468" clip-path="url(#clip-path-2)">
        <g id="Group_467" data-name="Group 467" transform="translate(-230.4 -2272)">
          <g id="Group_466" data-name="Group 466" clip-path="url(#clip-path-3)">
            <rect id="Rectangle_231" data-name="Rectangle 231" width="160" height="160" transform="translate(214.4 2256)" fill="#ff4612"/>
          </g>
        </g>
      </g>
    </g>
    <g id="Group_473" data-name="Group 473" transform="translate(23.578 21.894)">
      <g id="Group_472" data-name="Group 472" clip-path="url(#clip-path-4)">
        <g id="Group_471" data-name="Group 471" transform="translate(-253.978 -2293.894)">
          <g id="Group_470" data-name="Group 470" clip-path="url(#clip-path-3)">
            <rect id="Rectangle_233" data-name="Rectangle 233" width="112.842" height="114.526" transform="translate(237.979 2277.895)" fill="#fefefe"/>
          </g>
        </g>
      </g>
    </g>
  </g>
</svg>
